<svg width="1945" height="1054" viewBox="0 0 1945 1054" fill="none" xmlns="http://www.w3.org/2000/svg">
<g clip-path="url(#clip0_4_20)">
<path d="M972.792 305.703H972.782V305.713H972.792V305.703Z" fill="#D35DE9"/>
<path d="M1152.05 324.443L1078.62 451.863C1074.78 458.521 1069.1 463.733 1062.42 467L1044.65 435.03L1027.7 404.507L1009.93 372.537L995.361 346.325C995.495 346.258 995.62 346.181 995.753 346.104C1002.76 342.052 1008.73 336.179 1012.91 328.917C1017.1 321.645 1019.19 313.54 1019.19 305.435C1019.19 297.33 1017.1 289.225 1012.91 281.954C1008.73 274.692 1002.76 268.819 995.753 264.766C988.743 260.714 980.691 258.472 972.313 258.472C963.936 258.472 955.883 260.714 948.873 264.766C941.863 268.819 935.905 274.692 931.717 281.954C923.349 296.487 923.349 314.383 931.717 328.917C935.905 336.179 941.863 342.052 948.873 346.104C949.026 346.2 949.189 346.286 949.352 346.373L934.385 372.355L916.1 404.066L898.665 434.321L880.38 466.032C874.499 462.756 869.497 457.899 866.016 451.863L792.588 324.443C785.807 312.678 785.807 298.192 792.588 286.428L866.016 159.017C872.796 147.252 885.324 140 898.885 140H1045.75C1059.31 140 1071.84 147.252 1078.62 159.017L1152.05 286.428C1154.98 291.534 1156.66 297.148 1157.05 302.829C1157.56 310.245 1155.88 317.784 1152.05 324.443Z" fill="#605DE9"/>
<path d="M972.792 305.703H972.782V305.713H972.792V305.703Z" fill="#F797FC"/>
<path opacity="0.3" d="M1115.49 324.443L1060.34 420.142C1056.6 426.637 1051.1 431.753 1044.65 435.03L1027.7 404.507L1009.93 372.537L995.361 346.324C995.495 346.257 995.619 346.181 995.753 346.104C1002.76 342.052 1008.73 336.179 1012.91 328.917C1017.1 321.645 1019.19 313.54 1019.19 305.435C1019.19 297.33 1017.1 289.225 1012.91 281.953C1008.73 274.691 1002.76 268.819 995.753 264.766C988.743 260.714 980.691 258.472 972.313 258.472C963.936 258.472 955.883 260.714 948.873 264.766C941.863 268.819 935.905 274.691 931.717 281.953C923.349 296.487 923.349 314.383 931.717 328.917C935.905 336.179 941.863 342.052 948.873 346.104C949.026 346.2 949.189 346.286 949.352 346.372L934.385 372.355L916.099 404.066L898.665 434.321C892.784 431.044 887.782 426.187 884.301 420.142L829.139 324.443C822.368 312.678 822.368 298.192 829.139 286.427L884.301 190.728C891.072 178.964 903.61 171.721 917.161 171.721H1027.48C1041.03 171.721 1053.55 178.964 1060.34 190.728L1115.49 286.427C1122.27 298.192 1122.27 312.678 1115.49 324.443Z" fill="#F797FC"/>
<path d="M972.792 305.703H972.782V305.713H972.792V305.703Z" fill="#FCA5FE"/>
<path d="M1082.06 319.011L1038.93 393.863C1036.25 398.509 1032.31 402.169 1027.7 404.507L1009.93 372.537L995.361 346.325C995.495 346.258 995.619 346.181 995.753 346.104C1002.76 342.052 1008.73 336.179 1012.91 328.917C1017.1 321.645 1019.19 313.54 1019.19 305.435C1019.19 297.33 1017.1 289.225 1012.91 281.954C1008.73 274.692 1002.76 268.819 995.753 264.766C988.743 260.714 980.691 258.472 972.313 258.472C963.936 258.472 955.883 260.714 948.873 264.766C941.863 268.819 935.905 274.692 931.716 281.954C923.348 296.487 923.348 314.383 931.716 328.917C935.905 336.179 941.863 342.052 948.873 346.104C949.026 346.2 949.189 346.286 949.351 346.372L934.385 372.355L916.099 404.066C911.844 401.719 908.219 398.231 905.704 393.863L862.573 319.011C857.724 310.609 857.724 300.262 862.573 291.86L905.704 217.008C910.543 208.606 919.494 203.432 929.182 203.432H1015.45C1025.14 203.432 1034.08 208.606 1038.93 217.008L1082.06 291.86C1086.91 300.262 1086.91 310.609 1082.06 319.011Z" fill="#CCA5FE"/>
<path d="M972.792 305.703H972.782V305.713H972.792V305.703Z" fill="#FDD4FE"/>
<path opacity="0.7" d="M1045.51 319.011L1020.66 362.142C1018.07 366.616 1014.33 370.18 1009.93 372.537L995.361 346.325C995.495 346.258 995.619 346.181 995.753 346.104C1002.76 342.052 1008.73 336.179 1012.91 328.917C1017.1 321.645 1019.19 313.54 1019.19 305.435C1019.19 297.33 1017.1 289.225 1012.91 281.954C1008.73 274.692 1002.76 268.819 995.753 264.766C988.743 260.714 980.691 258.472 972.313 258.472C963.936 258.472 955.883 260.714 948.873 264.766C941.863 268.819 935.905 274.692 931.716 281.954C923.348 296.487 923.348 314.383 931.716 328.917C935.905 336.179 941.863 342.052 948.873 346.104C949.026 346.2 949.189 346.286 949.351 346.373L934.385 372.355C930.129 370.008 926.495 366.511 923.98 362.142L899.124 319.011C894.285 310.609 894.285 300.262 899.124 291.86L923.98 248.729C928.828 240.327 937.78 235.144 947.458 235.144H997.178C1006.86 235.144 1015.81 240.327 1020.66 248.729L1045.51 291.86C1050.35 300.262 1050.35 310.609 1045.51 319.011Z" fill="#FDD4FE"/>
<path d="M972.792 305.703H972.782V305.713H972.792V305.703Z" fill="white"/>
<path d="M1157.48 302.82L1157.04 302.83" stroke="white" stroke-width="0.958045" stroke-miterlimit="10"/>
<path d="M972.782 305.723V305.713" stroke="white" stroke-width="0.958045" stroke-miterlimit="10"/>
</g>
<path d="M268.44 773.08H192.78L179.78 810H148.84L213.58 629.04H247.9L312.64 810H281.44L268.44 773.08ZM260.12 748.9L230.74 664.92L201.1 748.9H260.12ZM475.729 666.74V810H446.089V793.1C441.409 798.993 435.256 803.673 427.629 807.14C420.176 810.433 412.202 812.08 403.709 812.08C392.442 812.08 382.302 809.74 373.289 805.06C364.449 800.38 357.429 793.447 352.229 784.26C347.202 775.073 344.689 763.98 344.689 750.98V666.74H374.069V746.56C374.069 759.387 377.276 769.267 383.689 776.2C390.102 782.96 398.856 786.34 409.949 786.34C421.042 786.34 429.796 782.96 436.209 776.2C442.796 769.267 446.089 759.387 446.089 746.56V666.74H475.729ZM554.617 690.92V770.22C554.617 775.593 555.83 779.493 558.257 781.92C560.857 784.173 565.19 785.3 571.257 785.3H589.457V810H566.057C552.71 810 542.483 806.88 535.377 800.64C528.27 794.4 524.717 784.26 524.717 770.22V690.92H507.817V666.74H524.717V631.12H554.617V666.74H589.457V690.92H554.617ZM753.275 734.86C753.275 740.233 752.928 745.087 752.235 749.42H642.775C643.642 760.86 647.888 770.047 655.515 776.98C663.142 783.913 672.502 787.38 683.595 787.38C699.542 787.38 710.808 780.707 717.395 767.36H749.375C745.042 780.533 737.155 791.367 725.715 799.86C714.448 808.18 700.408 812.34 683.595 812.34C669.902 812.34 657.595 809.307 646.675 803.24C635.928 797 627.435 788.333 621.195 777.24C615.128 765.973 612.095 752.973 612.095 738.24C612.095 723.507 615.042 710.593 620.935 699.5C627.002 688.233 635.408 679.567 646.155 673.5C657.075 667.433 669.555 664.4 683.595 664.4C697.115 664.4 709.162 667.347 719.735 673.24C730.308 679.133 738.542 687.453 744.435 698.2C750.328 708.773 753.275 720.993 753.275 734.86ZM722.335 725.5C722.162 714.58 718.262 705.827 710.635 699.24C703.008 692.653 693.562 689.36 682.295 689.36C672.068 689.36 663.315 692.653 656.035 699.24C648.755 705.653 644.422 714.407 643.035 725.5H722.335ZM859.924 664.4C871.19 664.4 881.244 666.74 890.084 671.42C899.097 676.1 906.117 683.033 911.144 692.22C916.17 701.407 918.684 712.5 918.684 725.5V810H889.304V729.92C889.304 717.093 886.097 707.3 879.684 700.54C873.27 693.607 864.517 690.14 853.424 690.14C842.33 690.14 833.49 693.607 826.904 700.54C820.49 707.3 817.284 717.093 817.284 729.92V810H787.644V666.74H817.284V683.12C822.137 677.227 828.29 672.633 835.744 669.34C843.37 666.047 851.43 664.4 859.924 664.4ZM996.271 690.92V770.22C996.271 775.593 997.485 779.493 999.911 781.92C1002.51 784.173 1006.84 785.3 1012.91 785.3H1031.11V810H1007.71C994.365 810 984.138 806.88 977.031 800.64C969.925 794.4 966.371 784.26 966.371 770.22V690.92H949.471V666.74H966.371V631.12H996.271V666.74H1031.11V690.92H996.271ZM1078.71 647.76C1073.34 647.76 1068.83 645.94 1065.19 642.3C1061.55 638.66 1059.73 634.153 1059.73 628.78C1059.73 623.407 1061.55 618.9 1065.19 615.26C1068.83 611.62 1073.34 609.8 1078.71 609.8C1083.91 609.8 1088.33 611.62 1091.97 615.26C1095.61 618.9 1097.43 623.407 1097.43 628.78C1097.43 634.153 1095.61 638.66 1091.97 642.3C1088.33 645.94 1083.91 647.76 1078.71 647.76ZM1093.27 666.74V810H1063.63V666.74H1093.27ZM1127.5 738.24C1127.5 723.507 1130.45 710.593 1136.34 699.5C1142.41 688.233 1150.73 679.567 1161.3 673.5C1171.88 667.433 1184.01 664.4 1197.7 664.4C1215.04 664.4 1229.34 668.56 1240.6 676.88C1252.04 685.027 1259.76 696.727 1263.74 711.98H1231.76C1229.16 704.873 1225 699.327 1219.28 695.34C1213.56 691.353 1206.37 689.36 1197.7 689.36C1185.57 689.36 1175.86 693.693 1168.58 702.36C1161.48 710.853 1157.92 722.813 1157.92 738.24C1157.92 753.667 1161.48 765.713 1168.58 774.38C1175.86 783.047 1185.57 787.38 1197.7 787.38C1214.86 787.38 1226.22 779.84 1231.76 764.76H1263.74C1259.58 779.32 1251.78 790.933 1240.34 799.6C1228.9 808.093 1214.69 812.34 1197.7 812.34C1184.01 812.34 1171.88 809.307 1161.3 803.24C1150.73 797 1142.41 788.333 1136.34 777.24C1130.45 765.973 1127.5 752.973 1127.5 738.24ZM1288.6 737.72C1288.6 723.333 1291.55 710.593 1297.44 699.5C1303.51 688.407 1311.66 679.827 1321.88 673.76C1332.28 667.52 1343.72 664.4 1356.2 664.4C1367.47 664.4 1377.26 666.653 1385.58 671.16C1394.08 675.493 1400.84 680.953 1405.86 687.54V666.74H1435.76V810H1405.86V788.68C1400.84 795.44 1393.99 801.073 1385.32 805.58C1376.66 810.087 1366.78 812.34 1355.68 812.34C1343.38 812.34 1332.11 809.22 1321.88 802.98C1311.66 796.567 1303.51 787.727 1297.44 776.46C1291.55 765.02 1288.6 752.107 1288.6 737.72ZM1405.86 738.24C1405.86 728.36 1403.78 719.78 1399.62 712.5C1395.64 705.22 1390.35 699.673 1383.76 695.86C1377.18 692.047 1370.07 690.14 1362.44 690.14C1354.82 690.14 1347.71 692.047 1341.12 695.86C1334.54 699.5 1329.16 704.96 1325 712.24C1321.02 719.347 1319.02 727.84 1319.02 737.72C1319.02 747.6 1321.02 756.267 1325 763.72C1329.16 771.173 1334.54 776.893 1341.12 780.88C1347.88 784.693 1354.99 786.6 1362.44 786.6C1370.07 786.6 1377.18 784.693 1383.76 780.88C1390.35 777.067 1395.64 771.52 1399.62 764.24C1403.78 756.787 1405.86 748.12 1405.86 738.24ZM1653.31 664.4C1664.58 664.4 1674.63 666.74 1683.47 671.42C1692.49 676.1 1699.51 683.033 1704.53 692.22C1709.73 701.407 1712.33 712.5 1712.33 725.5V810H1682.95V729.92C1682.95 717.093 1679.75 707.3 1673.33 700.54C1666.92 693.607 1658.17 690.14 1647.07 690.14C1635.98 690.14 1627.14 693.607 1620.55 700.54C1614.14 707.3 1610.93 717.093 1610.93 729.92V810H1581.55V729.92C1581.55 717.093 1578.35 707.3 1571.93 700.54C1565.52 693.607 1556.77 690.14 1545.67 690.14C1534.58 690.14 1525.74 693.607 1519.15 700.54C1512.74 707.3 1509.53 717.093 1509.53 729.92V810H1479.89V666.74H1509.53V683.12C1514.39 677.227 1520.54 672.633 1527.99 669.34C1535.45 666.047 1543.42 664.4 1551.91 664.4C1563.35 664.4 1573.58 666.827 1582.59 671.68C1591.61 676.533 1598.54 683.553 1603.39 692.74C1607.73 684.073 1614.49 677.227 1623.67 672.2C1632.86 667 1642.74 664.4 1653.31 664.4ZM1770.33 647.76C1764.96 647.76 1760.45 645.94 1756.81 642.3C1753.17 638.66 1751.35 634.153 1751.35 628.78C1751.35 623.407 1753.17 618.9 1756.81 615.26C1760.45 611.62 1764.96 609.8 1770.33 609.8C1775.53 609.8 1779.95 611.62 1783.59 615.26C1787.23 618.9 1789.05 623.407 1789.05 628.78C1789.05 634.153 1787.23 638.66 1783.59 642.3C1779.95 645.94 1775.53 647.76 1770.33 647.76ZM1784.89 666.74V810H1755.25V666.74H1784.89Z" fill="#605DE9"/>
<defs>
<clipPath id="clip0_4_20">
<rect width="370" height="327" fill="white" transform="translate(787.5 140)"/>
</clipPath>
</defs>
</svg>
